<svg id="visual" viewBox="0 0 960 540" width="960" height="540" xmlns="http://www.w3.org/2000/svg" xmlns:xlink="http://www.w3.org/1999/xlink" version="1.1"><rect x="0" y="0" width="960" height="540" fill="#001220"></rect><defs><linearGradient id="grad1_0" x1="43.8%" y1="0%" x2="100%" y2="100%"><stop offset="14.444444444444446%" stop-color="#bbfa3c" stop-opacity="1"></stop><stop offset="85.55555555555554%" stop-color="#bbfa3c" stop-opacity="1"></stop></linearGradient></defs><defs><linearGradient id="grad1_1" x1="43.8%" y1="0%" x2="100%" y2="100%"><stop offset="14.444444444444446%" stop-color="#bbfa3c" stop-opacity="1"></stop><stop offset="85.55555555555554%" stop-color="#47d864" stop-opacity="1"></stop></linearGradient></defs><defs><linearGradient id="grad1_2" x1="43.8%" y1="0%" x2="100%" y2="100%"><stop offset="14.444444444444446%" stop-color="#00b17d" stop-opacity="1"></stop><stop offset="85.55555555555554%" stop-color="#47d864" stop-opacity="1"></stop></linearGradient></defs><defs><linearGradient id="grad1_3" x1="43.8%" y1="0%" x2="100%" y2="100%"><stop offset="14.444444444444446%" stop-color="#00b17d" stop-opacity="1"></stop><stop offset="85.55555555555554%" stop-color="#008782" stop-opacity="1"></stop></linearGradient></defs><defs><linearGradient id="grad1_4" x1="43.8%" y1="0%" x2="100%" y2="100%"><stop offset="14.444444444444446%" stop-color="#005d71" stop-opacity="1"></stop><stop offset="85.55555555555554%" stop-color="#008782" stop-opacity="1"></stop></linearGradient></defs><defs><linearGradient id="grad1_5" x1="43.8%" y1="0%" x2="100%" y2="100%"><stop offset="14.444444444444446%" stop-color="#005d71" stop-opacity="1"></stop><stop offset="85.55555555555554%" stop-color="#00354d" stop-opacity="1"></stop></linearGradient></defs><defs><linearGradient id="grad1_6" x1="43.8%" y1="0%" x2="100%" y2="100%"><stop offset="14.444444444444446%" stop-color="#001220" stop-opacity="1"></stop><stop offset="85.55555555555554%" stop-color="#00354d" stop-opacity="1"></stop></linearGradient></defs><defs><linearGradient id="grad2_0" x1="0%" y1="0%" x2="56.3%" y2="100%"><stop offset="14.444444444444446%" stop-color="#bbfa3c" stop-opacity="1"></stop><stop offset="85.55555555555554%" stop-color="#bbfa3c" stop-opacity="1"></stop></linearGradient></defs><defs><linearGradient id="grad2_1" x1="0%" y1="0%" x2="56.3%" y2="100%"><stop offset="14.444444444444446%" stop-color="#47d864" stop-opacity="1"></stop><stop offset="85.55555555555554%" stop-color="#bbfa3c" stop-opacity="1"></stop></linearGradient></defs><defs><linearGradient id="grad2_2" x1="0%" y1="0%" x2="56.3%" y2="100%"><stop offset="14.444444444444446%" stop-color="#47d864" stop-opacity="1"></stop><stop offset="85.55555555555554%" stop-color="#00b17d" stop-opacity="1"></stop></linearGradient></defs><defs><linearGradient id="grad2_3" x1="0%" y1="0%" x2="56.3%" y2="100%"><stop offset="14.444444444444446%" stop-color="#008782" stop-opacity="1"></stop><stop offset="85.55555555555554%" stop-color="#00b17d" stop-opacity="1"></stop></linearGradient></defs><defs><linearGradient id="grad2_4" x1="0%" y1="0%" x2="56.3%" y2="100%"><stop offset="14.444444444444446%" stop-color="#008782" stop-opacity="1"></stop><stop offset="85.55555555555554%" stop-color="#005d71" stop-opacity="1"></stop></linearGradient></defs><defs><linearGradient id="grad2_5" x1="0%" y1="0%" x2="56.3%" y2="100%"><stop offset="14.444444444444446%" stop-color="#00354d" stop-opacity="1"></stop><stop offset="85.55555555555554%" stop-color="#005d71" stop-opacity="1"></stop></linearGradient></defs><defs><linearGradient id="grad2_6" x1="0%" y1="0%" x2="56.3%" y2="100%"><stop offset="14.444444444444446%" stop-color="#00354d" stop-opacity="1"></stop><stop offset="85.55555555555554%" stop-color="#001220" stop-opacity="1"></stop></linearGradient></defs><g transform="translate(960, 0)"><path d="M0 513C-67.1 502.8 -134.2 492.7 -193.3 466.6C-252.3 440.4 -303.3 398.3 -352.1 352.1C-400.9 306 -447.5 255.7 -474 196.3C-500.4 136.9 -506.7 68.5 -513 0L0 0Z" fill="#002337"></path><path d="M0 439.7C-57.5 431 -115 422.3 -165.6 399.9C-216.3 377.5 -260 341.4 -301.8 301.8C-343.7 262.2 -383.6 219.2 -406.2 168.3C-428.9 117.4 -434.3 58.7 -439.7 0L0 0Z" fill="#004961"></path><path d="M0 366.4C-47.9 359.2 -95.9 351.9 -138 333.3C-180.2 314.6 -216.7 284.5 -251.5 251.5C-286.4 218.5 -319.7 182.6 -338.5 140.2C-357.4 97.8 -361.9 48.9 -366.4 0L0 0Z" fill="#00727c"></path><path d="M0 293.1C-38.3 287.3 -76.7 281.5 -110.4 266.6C-144.2 251.7 -173.3 227.6 -201.2 201.2C-229.1 174.8 -255.7 146.1 -270.8 112.2C-285.9 78.3 -289.5 39.1 -293.1 0L0 0Z" fill="#009c82"></path><path d="M0 219.9C-28.8 215.5 -57.5 211.2 -82.8 200C-108.1 188.8 -130 170.7 -150.9 150.9C-171.8 131.1 -191.8 109.6 -203.1 84.1C-214.5 58.7 -217.2 29.3 -219.9 0L0 0Z" fill="#00c573"></path><path d="M0 146.6C-19.2 143.7 -38.3 140.8 -55.2 133.3C-72.1 125.8 -86.7 113.8 -100.6 100.6C-114.6 87.4 -127.9 73.1 -135.4 56.1C-143 39.1 -144.8 19.6 -146.6 0L0 0Z" fill="#84ea52"></path><path d="M0 73.3C-9.6 71.8 -19.2 70.4 -27.6 66.7C-36 62.9 -43.3 56.9 -50.3 50.3C-57.3 43.7 -63.9 36.5 -67.7 28C-71.5 19.6 -72.4 9.8 -73.3 0L0 0Z" fill="#bbfa3c"></path></g><g transform="translate(0, 540)"><path d="M0 -513C67.5 -506.1 135 -499.1 196.3 -474C257.6 -448.8 312.7 -405.4 355 -355C397.2 -304.5 426.7 -247.1 450.9 -186.7C475.1 -126.4 494 -63.2 513 0L0 0Z" fill="#002337"></path><path d="M0 -439.7C57.9 -433.8 115.7 -427.8 168.3 -406.2C220.8 -384.7 268 -347.5 304.3 -304.3C340.5 -261 365.7 -211.8 386.4 -160.1C407.2 -108.4 423.5 -54.2 439.7 0L0 0Z" fill="#004961"></path><path d="M0 -366.4C48.2 -361.5 96.4 -356.5 140.2 -338.5C184 -320.6 223.4 -289.6 253.5 -253.5C283.7 -217.5 304.8 -176.5 322 -133.4C339.3 -90.3 352.9 -45.1 366.4 0L0 0Z" fill="#00727c"></path><path d="M0 -293.1C38.6 -289.2 77.2 -285.2 112.2 -270.8C147.2 -256.4 178.7 -231.7 202.8 -202.8C227 -174 243.8 -141.2 257.6 -106.7C271.5 -72.2 282.3 -36.1 293.1 0L0 0Z" fill="#009c82"></path><path d="M0 -219.9C28.9 -216.9 57.9 -213.9 84.1 -203.1C110.4 -192.3 134 -173.7 152.1 -152.1C170.2 -130.5 182.9 -105.9 193.2 -80C203.6 -54.2 211.7 -27.1 219.9 0L0 0Z" fill="#00c573"></path><path d="M0 -146.6C19.3 -144.6 38.6 -142.6 56.1 -135.4C73.6 -128.2 89.3 -115.8 101.4 -101.4C113.5 -87 121.9 -70.6 128.8 -53.4C135.7 -36.1 141.2 -18.1 146.6 0L0 0Z" fill="#84ea52"></path><path d="M0 -73.3C9.6 -72.3 19.3 -71.3 28 -67.7C36.8 -64.1 44.7 -57.9 50.7 -50.7C56.7 -43.5 61 -35.3 64.4 -26.7C67.9 -18.1 70.6 -9 73.3 0L0 0Z" fill="#bbfa3c"></path></g></svg>