<svg xmlns="http://www.w3.org/2000/svg" version="1.1" xmlns:xlink="http://www.w3.org/1999/xlink" xmlns:svgjs="http://svgjs.com/svgjs" width="1950" height="350" preserveAspectRatio="none" viewBox="0 0 1950 350"><g mask="url(&quot;#SvgjsMask1116&quot;)" fill="none"><rect width="1950" height="350" x="0" y="0" fill="rgba(30, 38, 45, 1)"></rect><g mask="url(&quot;#SvgjsMask1117&quot;)"><path d="M344 184L360 200L376 200L392 200M104 168L120 184L136 184L152 184L168 184M232 184L248 168L264 168M360 184L376 168L392 168L408 168M184 168L200 184M296 184L312 200L328 200L344 200M-8 168L8 168L24 168L40 168L56 168L72 168L88 168L104 168L120 168L136 168L152 168L168 168L184 168L200 168L216 184L232 184L248 184L264 184L280 184L296 184L312 184L328 184L344 184L360 184L376 184L392 184L408 184" stroke="rgba(0, 0, 0, 1)" stroke-width="2.67"></path><path d="M404 184 a4 4 0 1 0 8 0 a4 4 0 1 0 -8 0zM388 200 a4 4 0 1 0 8 0 a4 4 0 1 0 -8 0zM164 184 a4 4 0 1 0 8 0 a4 4 0 1 0 -8 0zM260 168 a4 4 0 1 0 8 0 a4 4 0 1 0 -8 0zM404 168 a4 4 0 1 0 8 0 a4 4 0 1 0 -8 0zM196 184 a4 4 0 1 0 8 0 a4 4 0 1 0 -8 0zM340 200 a4 4 0 1 0 8 0 a4 4 0 1 0 -8 0z" fill="rgba(0, 0, 0, 1)"></path><path d="M408 216L424 200L440 184M440 216L456 200L472 200L488 200M328 216L344 232L360 232M472 216L488 232L504 232M232 200L248 216L264 216M648 200L664 216L680 216L696 216L712 216L728 216L744 216L760 216L776 216L792 232L808 232L824 232L840 232L856 232L872 232L888 232L904 232L920 232L936 232L952 232L968 232L984 232M504 216L520 216L536 216M632 200L648 184L664 168L680 168L696 168L712 168L728 168L744 168L760 168L776 168L792 168L808 168L824 168L840 168L856 168L872 168L888 168L904 168L920 168L936 168M840 216L856 200L872 184L888 184L904 184L920 184L936 184L952 184L968 184L984 184L1000 184L1016 184L1032 184L1048 184M520 200L536 184M968 216L984 200L1000 200L1016 200L1032 216L1048 216M696 200L712 184L728 184L744 184L760 184L776 184M552 200L568 216M824 216L840 200L856 184M568 200L584 184L600 184L616 184L632 184L648 168L664 152L680 152L696 152L712 152L728 152L744 152M-8 184L8 184L24 184L40 184L56 184L72 184L88 184L104 200L120 200L136 200L152 200L168 200L184 200L200 200L216 200L232 200L248 200L264 200L280 216L296 216L312 216L328 216L344 216L360 216L376 216L392 216L408 216L424 216L440 216L456 216L472 216L488 216L504 216L520 200L536 200L552 200L568 200L584 200L600 200L616 200L632 200L648 200L664 200L680 200L696 200L712 200L728 200L744 200L760 200L776 200L792 216L808 216L824 216L840 216L856 216L872 216L888 216L904 216L920 216L936 216L952 216L968 216L984 216" stroke="rgba(0, 0, 0, 1)" stroke-width="2.67"></path><path d="M980 216 a4 4 0 1 0 8 0 a4 4 0 1 0 -8 0zM436 184 a4 4 0 1 0 8 0 a4 4 0 1 0 -8 0zM484 200 a4 4 0 1 0 8 0 a4 4 0 1 0 -8 0zM356 232 a4 4 0 1 0 8 0 a4 4 0 1 0 -8 0zM500 232 a4 4 0 1 0 8 0 a4 4 0 1 0 -8 0zM260 216 a4 4 0 1 0 8 0 a4 4 0 1 0 -8 0zM980 232 a4 4 0 1 0 8 0 a4 4 0 1 0 -8 0zM532 216 a4 4 0 1 0 8 0 a4 4 0 1 0 -8 0zM932 168 a4 4 0 1 0 8 0 a4 4 0 1 0 -8 0zM1044 184 a4 4 0 1 0 8 0 a4 4 0 1 0 -8 0zM532 184 a4 4 0 1 0 8 0 a4 4 0 1 0 -8 0zM1044 216 a4 4 0 1 0 8 0 a4 4 0 1 0 -8 0zM772 184 a4 4 0 1 0 8 0 a4 4 0 1 0 -8 0zM564 216 a4 4 0 1 0 8 0 a4 4 0 1 0 -8 0zM852 184 a4 4 0 1 0 8 0 a4 4 0 1 0 -8 0zM740 152 a4 4 0 1 0 8 0 a4 4 0 1 0 -8 0z" fill="rgba(0, 0, 0, 1)"></path><path d="M408 72L424 56L440 56L456 56L472 56L488 56L504 56L520 56L536 56L552 56M264 136L280 152M56 152L72 136L88 136L104 136L120 136M40 152L56 136M360 72L376 88L392 88L408 104L424 104L440 104M152 152L168 136L184 136L200 136L216 136L232 136L248 136M136 152L152 136M-8 152L8 152L24 152L40 152L56 152L72 152L88 152L104 152L120 152L136 152L152 152L168 152L184 152L200 152L216 152L232 152L248 152L264 136L280 120L296 120L312 104L328 88L344 72L360 72L376 72L392 72L408 72L424 72" stroke="rgba(0, 0, 0, 1)" stroke-width="2.67"></path><path d="M420 72 a4 4 0 1 0 8 0 a4 4 0 1 0 -8 0zM548 56 a4 4 0 1 0 8 0 a4 4 0 1 0 -8 0zM276 152 a4 4 0 1 0 8 0 a4 4 0 1 0 -8 0zM116 136 a4 4 0 1 0 8 0 a4 4 0 1 0 -8 0zM52 136 a4 4 0 1 0 8 0 a4 4 0 1 0 -8 0zM436 104 a4 4 0 1 0 8 0 a4 4 0 1 0 -8 0zM244 136 a4 4 0 1 0 8 0 a4 4 0 1 0 -8 0zM148 136 a4 4 0 1 0 8 0 a4 4 0 1 0 -8 0z" fill="rgba(0, 0, 0, 1)"></path><path d="M-8 200L8 200L24 200L40 200L56 200L72 200L88 200L104 216L120 216L136 216L152 216L168 216L184 216L200 216L216 216" stroke="rgba(255, 255, 255, 1)" stroke-width="2.67"></path><path d="M212 216 a4 4 0 1 0 8 0 a4 4 0 1 0 -8 0z" fill="rgba(255, 255, 255, 1)"></path><path d="M248 120L264 120M584 40L600 56L616 56L632 56L648 56M184 120L200 104L216 104L232 104L248 104M568 40L584 56L600 72L616 72L632 72L648 72L664 72L680 72L696 72L712 72L728 72M24 136L40 136M360 40L376 56L392 56L408 56M-8 136L8 136L24 136L40 120L56 120L72 120L88 120L104 120L120 120L136 120L152 120L168 120L184 120L200 120L216 120L232 120L248 120L264 104L280 104L296 104L312 88L328 72L344 56L360 40L376 40L392 40L408 40L424 40L440 40L456 40L472 40L488 40L504 40L520 40L536 40L552 40L568 40L584 40L600 40L616 40L632 40" stroke="rgba(255, 255, 255, 1)" stroke-width="2.67"></path><path d="M628 40 a4 4 0 1 0 8 0 a4 4 0 1 0 -8 0zM260 120 a4 4 0 1 0 8 0 a4 4 0 1 0 -8 0zM644 56 a4 4 0 1 0 8 0 a4 4 0 1 0 -8 0zM244 104 a4 4 0 1 0 8 0 a4 4 0 1 0 -8 0zM724 72 a4 4 0 1 0 8 0 a4 4 0 1 0 -8 0zM36 136 a4 4 0 1 0 8 0 a4 4 0 1 0 -8 0zM404 56 a4 4 0 1 0 8 0 a4 4 0 1 0 -8 0z" fill="rgba(255, 255, 255, 1)"></path><path d="M504 248L520 264L536 264M296 248L312 232L328 232M408 248L424 232L440 232L456 232M280 248L296 232M520 248L536 232L552 232M424 248L440 264L456 280L472 280L488 264L504 264L520 280L536 280M632 248L648 232L664 232L680 232L696 232L712 232L728 232M392 248L408 232M568 248L584 232L600 216L616 216M616 248L632 264L648 264L664 264L680 264L696 264M-8 216L8 216L24 216L40 216L56 216L72 216L88 216L104 232L120 232L136 232L152 232L168 232L184 232L200 232L216 232L232 232L248 232L264 232L280 248L296 248L312 248L328 248L344 248L360 248L376 248L392 248L408 248L424 248L440 248L456 248L472 248L488 248L504 248L520 248L536 248L552 248L568 248L584 248L600 248L616 248L632 248L648 248L664 248" stroke="rgba(0, 0, 0, 1)" stroke-width="2.67"></path><path d="M660 248 a4 4 0 1 0 8 0 a4 4 0 1 0 -8 0zM532 264 a4 4 0 1 0 8 0 a4 4 0 1 0 -8 0zM324 232 a4 4 0 1 0 8 0 a4 4 0 1 0 -8 0zM452 232 a4 4 0 1 0 8 0 a4 4 0 1 0 -8 0zM292 232 a4 4 0 1 0 8 0 a4 4 0 1 0 -8 0zM548 232 a4 4 0 1 0 8 0 a4 4 0 1 0 -8 0zM532 280 a4 4 0 1 0 8 0 a4 4 0 1 0 -8 0zM724 232 a4 4 0 1 0 8 0 a4 4 0 1 0 -8 0zM404 232 a4 4 0 1 0 8 0 a4 4 0 1 0 -8 0zM612 216 a4 4 0 1 0 8 0 a4 4 0 1 0 -8 0zM692 264 a4 4 0 1 0 8 0 a4 4 0 1 0 -8 0z" fill="rgba(0, 0, 0, 1)"></path><path d="M168 104L184 104M264 88L280 72M280 88L296 88M-8 120L8 120L24 120L40 104L56 104L72 104L88 104L104 104L120 104L136 104L152 104L168 104L184 88L200 88L216 88L232 88L248 88L264 88L280 88L296 72L312 72L328 56L344 40" stroke="rgba(0, 0, 0, 1)" stroke-width="2.67"></path><path d="M340 40 a4 4 0 1 0 8 0 a4 4 0 1 0 -8 0zM180 104 a4 4 0 1 0 8 0 a4 4 0 1 0 -8 0zM276 72 a4 4 0 1 0 8 0 a4 4 0 1 0 -8 0zM292 88 a4 4 0 1 0 8 0 a4 4 0 1 0 -8 0z" fill="rgba(0, 0, 0, 1)"></path><path d="M56 232L72 248L88 248M168 248L184 264L200 264L216 264M328 264L344 280L360 280M376 264L392 264L408 280L424 280M136 248L152 264M280 264L296 280M-8 232L8 232L24 232L40 232L56 232L72 232L88 232L104 248L120 248L136 248L152 248L168 248L184 248L200 248L216 248L232 248L248 248L264 248L280 264L296 264L312 264L328 264L344 264L360 264L376 264L392 280" stroke="rgba(0, 0, 0, 1)" stroke-width="2.67"></path><path d="M388 280 a4 4 0 1 0 8 0 a4 4 0 1 0 -8 0zM84 248 a4 4 0 1 0 8 0 a4 4 0 1 0 -8 0zM212 264 a4 4 0 1 0 8 0 a4 4 0 1 0 -8 0zM356 280 a4 4 0 1 0 8 0 a4 4 0 1 0 -8 0zM420 280 a4 4 0 1 0 8 0 a4 4 0 1 0 -8 0zM148 264 a4 4 0 1 0 8 0 a4 4 0 1 0 -8 0zM292 280 a4 4 0 1 0 8 0 a4 4 0 1 0 -8 0z" fill="rgba(0, 0, 0, 1)"></path><path d="M-8 104L8 104L24 104L40 88L56 88L72 88L88 88L104 88L120 88L136 88L152 88L168 88L184 72L200 72L216 72L232 72L248 72L264 56L280 56L296 56L312 56L328 40" stroke="rgba(255, 255, 255, 1)" stroke-width="2.67"></path><path d="M324 40 a4 4 0 1 0 8 0 a4 4 0 1 0 -8 0z" fill="rgba(255, 255, 255, 1)"></path><path d="M8 248L24 248L40 248M72 264L88 280L104 280L120 296M56 264L72 280L88 296L104 296L120 312M-8 248L8 248L24 264L40 264L56 264L72 264L88 264L104 264L120 264" stroke="rgba(0, 0, 0, 1)" stroke-width="2.67"></path><path d="M116 264 a4 4 0 1 0 8 0 a4 4 0 1 0 -8 0zM36 248 a4 4 0 1 0 8 0 a4 4 0 1 0 -8 0zM116 296 a4 4 0 1 0 8 0 a4 4 0 1 0 -8 0zM116 312 a4 4 0 1 0 8 0 a4 4 0 1 0 -8 0z" fill="rgba(0, 0, 0, 1)"></path><path d="M216 56L232 40M88 72L104 56L120 56L136 56M200 56L216 40M184 56L200 40M40 72L56 56L72 56M-8 88L8 88L24 88L40 72L56 72L72 72L88 72L104 72L120 72L136 72L152 72L168 72L184 56L200 56L216 56L232 56L248 56L264 40L280 40L296 40" stroke="rgba(0, 0, 0, 1)" stroke-width="2.67"></path><path d="M292 40 a4 4 0 1 0 8 0 a4 4 0 1 0 -8 0zM228 40 a4 4 0 1 0 8 0 a4 4 0 1 0 -8 0zM132 56 a4 4 0 1 0 8 0 a4 4 0 1 0 -8 0zM212 40 a4 4 0 1 0 8 0 a4 4 0 1 0 -8 0zM196 40 a4 4 0 1 0 8 0 a4 4 0 1 0 -8 0zM68 56 a4 4 0 1 0 8 0 a4 4 0 1 0 -8 0z" fill="rgba(0, 0, 0, 1)"></path></g></g><defs><mask id="SvgjsMask1116"><rect width="1950" height="350" fill="#ffffff"></rect></mask><mask id="SvgjsMask1117"><rect width="1950" height="350" fill="white"></rect><path d="M406 184 a2 2 0 1 0 4 0 a2 2 0 1 0 -4 0zM390 200 a2 2 0 1 0 4 0 a2 2 0 1 0 -4 0zM166 184 a2 2 0 1 0 4 0 a2 2 0 1 0 -4 0zM262 168 a2 2 0 1 0 4 0 a2 2 0 1 0 -4 0zM406 168 a2 2 0 1 0 4 0 a2 2 0 1 0 -4 0zM198 184 a2 2 0 1 0 4 0 a2 2 0 1 0 -4 0zM342 200 a2 2 0 1 0 4 0 a2 2 0 1 0 -4 0z" fill="black"></path><path d="M982 216 a2 2 0 1 0 4 0 a2 2 0 1 0 -4 0zM438 184 a2 2 0 1 0 4 0 a2 2 0 1 0 -4 0zM486 200 a2 2 0 1 0 4 0 a2 2 0 1 0 -4 0zM358 232 a2 2 0 1 0 4 0 a2 2 0 1 0 -4 0zM502 232 a2 2 0 1 0 4 0 a2 2 0 1 0 -4 0zM262 216 a2 2 0 1 0 4 0 a2 2 0 1 0 -4 0zM982 232 a2 2 0 1 0 4 0 a2 2 0 1 0 -4 0zM534 216 a2 2 0 1 0 4 0 a2 2 0 1 0 -4 0zM934 168 a2 2 0 1 0 4 0 a2 2 0 1 0 -4 0zM1046 184 a2 2 0 1 0 4 0 a2 2 0 1 0 -4 0zM534 184 a2 2 0 1 0 4 0 a2 2 0 1 0 -4 0zM1046 216 a2 2 0 1 0 4 0 a2 2 0 1 0 -4 0zM774 184 a2 2 0 1 0 4 0 a2 2 0 1 0 -4 0zM566 216 a2 2 0 1 0 4 0 a2 2 0 1 0 -4 0zM854 184 a2 2 0 1 0 4 0 a2 2 0 1 0 -4 0zM742 152 a2 2 0 1 0 4 0 a2 2 0 1 0 -4 0z" fill="black"></path><path d="M422 72 a2 2 0 1 0 4 0 a2 2 0 1 0 -4 0zM550 56 a2 2 0 1 0 4 0 a2 2 0 1 0 -4 0zM278 152 a2 2 0 1 0 4 0 a2 2 0 1 0 -4 0zM118 136 a2 2 0 1 0 4 0 a2 2 0 1 0 -4 0zM54 136 a2 2 0 1 0 4 0 a2 2 0 1 0 -4 0zM438 104 a2 2 0 1 0 4 0 a2 2 0 1 0 -4 0zM246 136 a2 2 0 1 0 4 0 a2 2 0 1 0 -4 0zM150 136 a2 2 0 1 0 4 0 a2 2 0 1 0 -4 0z" fill="black"></path><path d="M214 216 a2 2 0 1 0 4 0 a2 2 0 1 0 -4 0z" fill="black"></path><path d="M630 40 a2 2 0 1 0 4 0 a2 2 0 1 0 -4 0zM262 120 a2 2 0 1 0 4 0 a2 2 0 1 0 -4 0zM646 56 a2 2 0 1 0 4 0 a2 2 0 1 0 -4 0zM246 104 a2 2 0 1 0 4 0 a2 2 0 1 0 -4 0zM726 72 a2 2 0 1 0 4 0 a2 2 0 1 0 -4 0zM38 136 a2 2 0 1 0 4 0 a2 2 0 1 0 -4 0zM406 56 a2 2 0 1 0 4 0 a2 2 0 1 0 -4 0z" fill="black"></path><path d="M662 248 a2 2 0 1 0 4 0 a2 2 0 1 0 -4 0zM534 264 a2 2 0 1 0 4 0 a2 2 0 1 0 -4 0zM326 232 a2 2 0 1 0 4 0 a2 2 0 1 0 -4 0zM454 232 a2 2 0 1 0 4 0 a2 2 0 1 0 -4 0zM294 232 a2 2 0 1 0 4 0 a2 2 0 1 0 -4 0zM550 232 a2 2 0 1 0 4 0 a2 2 0 1 0 -4 0zM534 280 a2 2 0 1 0 4 0 a2 2 0 1 0 -4 0zM726 232 a2 2 0 1 0 4 0 a2 2 0 1 0 -4 0zM406 232 a2 2 0 1 0 4 0 a2 2 0 1 0 -4 0zM614 216 a2 2 0 1 0 4 0 a2 2 0 1 0 -4 0zM694 264 a2 2 0 1 0 4 0 a2 2 0 1 0 -4 0z" fill="black"></path><path d="M342 40 a2 2 0 1 0 4 0 a2 2 0 1 0 -4 0zM182 104 a2 2 0 1 0 4 0 a2 2 0 1 0 -4 0zM278 72 a2 2 0 1 0 4 0 a2 2 0 1 0 -4 0zM294 88 a2 2 0 1 0 4 0 a2 2 0 1 0 -4 0z" fill="black"></path><path d="M390 280 a2 2 0 1 0 4 0 a2 2 0 1 0 -4 0zM86 248 a2 2 0 1 0 4 0 a2 2 0 1 0 -4 0zM214 264 a2 2 0 1 0 4 0 a2 2 0 1 0 -4 0zM358 280 a2 2 0 1 0 4 0 a2 2 0 1 0 -4 0zM422 280 a2 2 0 1 0 4 0 a2 2 0 1 0 -4 0zM150 264 a2 2 0 1 0 4 0 a2 2 0 1 0 -4 0zM294 280 a2 2 0 1 0 4 0 a2 2 0 1 0 -4 0z" fill="black"></path><path d="M326 40 a2 2 0 1 0 4 0 a2 2 0 1 0 -4 0z" fill="black"></path><path d="M118 264 a2 2 0 1 0 4 0 a2 2 0 1 0 -4 0zM38 248 a2 2 0 1 0 4 0 a2 2 0 1 0 -4 0zM118 296 a2 2 0 1 0 4 0 a2 2 0 1 0 -4 0zM118 312 a2 2 0 1 0 4 0 a2 2 0 1 0 -4 0z" fill="black"></path><path d="M294 40 a2 2 0 1 0 4 0 a2 2 0 1 0 -4 0zM230 40 a2 2 0 1 0 4 0 a2 2 0 1 0 -4 0zM134 56 a2 2 0 1 0 4 0 a2 2 0 1 0 -4 0zM214 40 a2 2 0 1 0 4 0 a2 2 0 1 0 -4 0zM198 40 a2 2 0 1 0 4 0 a2 2 0 1 0 -4 0zM70 56 a2 2 0 1 0 4 0 a2 2 0 1 0 -4 0z" fill="black"></path></mask></defs></svg>