<svg id="visual" viewBox="0 0 960 540" width="960" height="540" xmlns="http://www.w3.org/2000/svg" xmlns:xlink="http://www.w3.org/1999/xlink" version="1.1"><rect x="0" y="0" width="960" height="540" fill="#001220"></rect><path d="M0 185L22.8 189.3C45.7 193.7 91.3 202.3 137 204.8C182.7 207.3 228.3 203.7 274 195.7C319.7 187.7 365.3 175.3 411.2 178.5C457 181.7 503 200.3 548.8 210.3C594.7 220.3 640.3 221.7 686 213.3C731.7 205 777.3 187 823 178C868.7 169 914.3 169 937.2 169L960 169L960 0L937.2 0C914.3 0 868.7 0 823 0C777.3 0 731.7 0 686 0C640.3 0 594.7 0 548.8 0C503 0 457 0 411.2 0C365.3 0 319.7 0 274 0C228.3 0 182.7 0 137 0C91.3 0 45.7 0 22.8 0L0 0Z" fill="#fa7268"></path><path d="M0 173L22.8 172.2C45.7 171.3 91.3 169.7 137 163.5C182.7 157.3 228.3 146.7 274 136.5C319.7 126.3 365.3 116.7 411.2 118.3C457 120 503 133 548.8 137.2C594.7 141.3 640.3 136.7 686 141.3C731.7 146 777.3 160 823 162.7C868.7 165.3 914.3 156.7 937.2 152.3L960 148L960 0L937.2 0C914.3 0 868.7 0 823 0C777.3 0 731.7 0 686 0C640.3 0 594.7 0 548.8 0C503 0 457 0 411.2 0C365.3 0 319.7 0 274 0C228.3 0 182.7 0 137 0C91.3 0 45.7 0 22.8 0L0 0Z" fill="#ef5f67"></path><path d="M0 98L22.8 98.5C45.7 99 91.3 100 137 103.7C182.7 107.3 228.3 113.7 274 113.5C319.7 113.3 365.3 106.7 411.2 106C457 105.3 503 110.7 548.8 107C594.7 103.3 640.3 90.7 686 89.7C731.7 88.7 777.3 99.3 823 106.8C868.7 114.3 914.3 118.7 937.2 120.8L960 123L960 0L937.2 0C914.3 0 868.7 0 823 0C777.3 0 731.7 0 686 0C640.3 0 594.7 0 548.8 0C503 0 457 0 411.2 0C365.3 0 319.7 0 274 0C228.3 0 182.7 0 137 0C91.3 0 45.7 0 22.8 0L0 0Z" fill="#e34c67"></path><path d="M0 70L22.8 71.5C45.7 73 91.3 76 137 77.5C182.7 79 228.3 79 274 80C319.7 81 365.3 83 411.2 83C457 83 503 81 548.8 80.3C594.7 79.7 640.3 80.3 686 81C731.7 81.7 777.3 82.3 823 86.2C868.7 90 914.3 97 937.2 100.5L960 104L960 0L937.2 0C914.3 0 868.7 0 823 0C777.3 0 731.7 0 686 0C640.3 0 594.7 0 548.8 0C503 0 457 0 411.2 0C365.3 0 319.7 0 274 0C228.3 0 182.7 0 137 0C91.3 0 45.7 0 22.8 0L0 0Z" fill="#d53867"></path><path d="M0 54L22.8 52.7C45.7 51.3 91.3 48.7 137 43.5C182.7 38.3 228.3 30.7 274 29.3C319.7 28 365.3 33 411.2 37.3C457 41.7 503 45.3 548.8 48.5C594.7 51.7 640.3 54.3 686 52C731.7 49.7 777.3 42.3 823 40.5C868.7 38.7 914.3 42.3 937.2 44.2L960 46L960 0L937.2 0C914.3 0 868.7 0 823 0C777.3 0 731.7 0 686 0C640.3 0 594.7 0 548.8 0C503 0 457 0 411.2 0C365.3 0 319.7 0 274 0C228.3 0 182.7 0 137 0C91.3 0 45.7 0 22.8 0L0 0Z" fill="#c62368"></path></svg>