<svg id="visual" viewBox="0 0 960 540" width="960" height="540" xmlns="http://www.w3.org/2000/svg" xmlns:xlink="http://www.w3.org/1999/xlink" version="1.1"><rect x="0" y="0" width="960" height="540" fill="#001220"></rect><defs><linearGradient id="grad1_0" x1="43.8%" y1="0%" x2="100%" y2="100%"><stop offset="14.444444444444446%" stop-color="#bbfa3c" stop-opacity="1"></stop><stop offset="85.55555555555554%" stop-color="#bbfa3c" stop-opacity="1"></stop></linearGradient></defs><defs><linearGradient id="grad1_1" x1="43.8%" y1="0%" x2="100%" y2="100%"><stop offset="14.444444444444446%" stop-color="#bbfa3c" stop-opacity="1"></stop><stop offset="85.55555555555554%" stop-color="#24d16b" stop-opacity="1"></stop></linearGradient></defs><defs><linearGradient id="grad1_2" x1="43.8%" y1="0%" x2="100%" y2="100%"><stop offset="14.444444444444446%" stop-color="#00a082" stop-opacity="1"></stop><stop offset="85.55555555555554%" stop-color="#24d16b" stop-opacity="1"></stop></linearGradient></defs><defs><linearGradient id="grad1_3" x1="43.8%" y1="0%" x2="100%" y2="100%"><stop offset="14.444444444444446%" stop-color="#00a082" stop-opacity="1"></stop><stop offset="85.55555555555554%" stop-color="#006d7a" stop-opacity="1"></stop></linearGradient></defs><defs><linearGradient id="grad1_4" x1="43.8%" y1="0%" x2="100%" y2="100%"><stop offset="14.444444444444446%" stop-color="#003d55" stop-opacity="1"></stop><stop offset="85.55555555555554%" stop-color="#006d7a" stop-opacity="1"></stop></linearGradient></defs><defs><linearGradient id="grad1_5" x1="43.8%" y1="0%" x2="100%" y2="100%"><stop offset="14.444444444444446%" stop-color="#003d55" stop-opacity="1"></stop><stop offset="85.55555555555554%" stop-color="#001220" stop-opacity="1"></stop></linearGradient></defs><defs><linearGradient id="grad2_0" x1="0%" y1="0%" x2="56.3%" y2="100%"><stop offset="14.444444444444446%" stop-color="#bbfa3c" stop-opacity="1"></stop><stop offset="85.55555555555554%" stop-color="#bbfa3c" stop-opacity="1"></stop></linearGradient></defs><defs><linearGradient id="grad2_1" x1="0%" y1="0%" x2="56.3%" y2="100%"><stop offset="14.444444444444446%" stop-color="#24d16b" stop-opacity="1"></stop><stop offset="85.55555555555554%" stop-color="#bbfa3c" stop-opacity="1"></stop></linearGradient></defs><defs><linearGradient id="grad2_2" x1="0%" y1="0%" x2="56.3%" y2="100%"><stop offset="14.444444444444446%" stop-color="#24d16b" stop-opacity="1"></stop><stop offset="85.55555555555554%" stop-color="#00a082" stop-opacity="1"></stop></linearGradient></defs><defs><linearGradient id="grad2_3" x1="0%" y1="0%" x2="56.3%" y2="100%"><stop offset="14.444444444444446%" stop-color="#006d7a" stop-opacity="1"></stop><stop offset="85.55555555555554%" stop-color="#00a082" stop-opacity="1"></stop></linearGradient></defs><defs><linearGradient id="grad2_4" x1="0%" y1="0%" x2="56.3%" y2="100%"><stop offset="14.444444444444446%" stop-color="#006d7a" stop-opacity="1"></stop><stop offset="85.55555555555554%" stop-color="#003d55" stop-opacity="1"></stop></linearGradient></defs><defs><linearGradient id="grad2_5" x1="0%" y1="0%" x2="56.3%" y2="100%"><stop offset="14.444444444444446%" stop-color="#001220" stop-opacity="1"></stop><stop offset="85.55555555555554%" stop-color="#003d55" stop-opacity="1"></stop></linearGradient></defs><g transform="translate(960, 0)"><path d="M0 486C-57.9 427.1 -115.8 368.3 -193.5 335.2C-271.2 302 -368.8 294.6 -420.9 243C-472.9 191.4 -479.5 95.7 -486 0L0 0Z" fill="#00273b"></path><path d="M0 405C-48.2 356 -96.5 306.9 -161.2 279.3C-226 251.7 -307.4 245.5 -350.7 202.5C-394.1 159.5 -399.6 79.8 -405 0L0 0Z" fill="#00556b"></path><path d="M0 324C-38.6 284.8 -77.2 245.5 -129 223.4C-180.8 201.3 -245.9 196.4 -280.6 162C-315.3 127.6 -319.6 63.8 -324 0L0 0Z" fill="#008782"></path><path d="M0 243C-28.9 213.6 -57.9 184.1 -96.7 167.6C-135.6 151 -184.4 147.3 -210.4 121.5C-236.5 95.7 -239.7 47.9 -243 0L0 0Z" fill="#00b979"></path><path d="M0 162C-19.3 142.4 -38.6 122.8 -64.5 111.7C-90.4 100.7 -122.9 98.2 -140.3 81C-157.6 63.8 -159.8 31.9 -162 0L0 0Z" fill="#78e756"></path><path d="M0 81C-9.6 71.2 -19.3 61.4 -32.2 55.9C-45.2 50.3 -61.5 49.1 -70.1 40.5C-78.8 31.9 -79.9 16 -81 0L0 0Z" fill="#bbfa3c"></path></g><g transform="translate(0, 540)"><path d="M0 -486C84.9 -473.2 169.7 -460.4 243 -420.9C316.3 -381.4 378 -315.1 416.6 -240.5C455.1 -165.9 470.6 -82.9 486 0L0 0Z" fill="#00273b"></path><path d="M0 -405C70.7 -394.3 141.4 -383.7 202.5 -350.7C263.6 -317.8 315 -262.6 347.1 -200.4C379.3 -138.2 392.1 -69.1 405 0L0 0Z" fill="#00556b"></path><path d="M0 -324C56.6 -315.5 113.1 -306.9 162 -280.6C210.9 -254.2 252 -210.1 277.7 -160.3C303.4 -110.6 313.7 -55.3 324 0L0 0Z" fill="#008782"></path><path d="M0 -243C42.4 -236.6 84.9 -230.2 121.5 -210.4C158.1 -190.7 189 -157.6 208.3 -120.3C227.6 -82.9 235.3 -41.5 243 0L0 0Z" fill="#00b979"></path><path d="M0 -162C28.3 -157.7 56.6 -153.5 81 -140.3C105.4 -127.1 126 -105 138.9 -80.2C151.7 -55.3 156.9 -27.6 162 0L0 0Z" fill="#78e756"></path><path d="M0 -81C14.1 -78.9 28.3 -76.7 40.5 -70.1C52.7 -63.6 63 -52.5 69.4 -40.1C75.9 -27.6 78.4 -13.8 81 0L0 0Z" fill="#bbfa3c"></path></g></svg>