<svg id="visual" viewBox="0 0 960 540" width="960" height="540" xmlns="http://www.w3.org/2000/svg" xmlns:xlink="http://www.w3.org/1999/xlink" version="1.1"><rect x="0" y="0" width="960" height="540" fill="#001122"></rect><defs><linearGradient id="grad1_0" x1="43.8%" y1="100%" x2="100%" y2="0%"><stop offset="14.444444444444446%" stop-color="#0066ff" stop-opacity="1"></stop><stop offset="85.55555555555554%" stop-color="#0066ff" stop-opacity="1"></stop></linearGradient></defs><defs><linearGradient id="grad1_1" x1="43.8%" y1="100%" x2="100%" y2="0%"><stop offset="14.444444444444446%" stop-color="#0066ff" stop-opacity="1"></stop><stop offset="85.55555555555554%" stop-color="#005cde" stop-opacity="1"></stop></linearGradient></defs><defs><linearGradient id="grad1_2" x1="43.8%" y1="100%" x2="100%" y2="0%"><stop offset="14.444444444444446%" stop-color="#0051bd" stop-opacity="1"></stop><stop offset="85.55555555555554%" stop-color="#005cde" stop-opacity="1"></stop></linearGradient></defs><defs><linearGradient id="grad1_3" x1="43.8%" y1="100%" x2="100%" y2="0%"><stop offset="14.444444444444446%" stop-color="#0051bd" stop-opacity="1"></stop><stop offset="85.55555555555554%" stop-color="#00459c" stop-opacity="1"></stop></linearGradient></defs><defs><linearGradient id="grad1_4" x1="43.8%" y1="100%" x2="100%" y2="0%"><stop offset="14.444444444444446%" stop-color="#00387c" stop-opacity="1"></stop><stop offset="85.55555555555554%" stop-color="#00459c" stop-opacity="1"></stop></linearGradient></defs><defs><linearGradient id="grad1_5" x1="43.8%" y1="100%" x2="100%" y2="0%"><stop offset="14.444444444444446%" stop-color="#00387c" stop-opacity="1"></stop><stop offset="85.55555555555554%" stop-color="#002b5c" stop-opacity="1"></stop></linearGradient></defs><defs><linearGradient id="grad1_6" x1="43.8%" y1="100%" x2="100%" y2="0%"><stop offset="14.444444444444446%" stop-color="#001f3e" stop-opacity="1"></stop><stop offset="85.55555555555554%" stop-color="#002b5c" stop-opacity="1"></stop></linearGradient></defs><defs><linearGradient id="grad1_7" x1="43.8%" y1="100%" x2="100%" y2="0%"><stop offset="14.444444444444446%" stop-color="#001f3e" stop-opacity="1"></stop><stop offset="85.55555555555554%" stop-color="#001122" stop-opacity="1"></stop></linearGradient></defs><defs><linearGradient id="grad2_0" x1="0%" y1="100%" x2="56.3%" y2="0%"><stop offset="14.444444444444446%" stop-color="#0066ff" stop-opacity="1"></stop><stop offset="85.55555555555554%" stop-color="#0066ff" stop-opacity="1"></stop></linearGradient></defs><defs><linearGradient id="grad2_1" x1="0%" y1="100%" x2="56.3%" y2="0%"><stop offset="14.444444444444446%" stop-color="#005cde" stop-opacity="1"></stop><stop offset="85.55555555555554%" stop-color="#0066ff" stop-opacity="1"></stop></linearGradient></defs><defs><linearGradient id="grad2_2" x1="0%" y1="100%" x2="56.3%" y2="0%"><stop offset="14.444444444444446%" stop-color="#005cde" stop-opacity="1"></stop><stop offset="85.55555555555554%" stop-color="#0051bd" stop-opacity="1"></stop></linearGradient></defs><defs><linearGradient id="grad2_3" x1="0%" y1="100%" x2="56.3%" y2="0%"><stop offset="14.444444444444446%" stop-color="#00459c" stop-opacity="1"></stop><stop offset="85.55555555555554%" stop-color="#0051bd" stop-opacity="1"></stop></linearGradient></defs><defs><linearGradient id="grad2_4" x1="0%" y1="100%" x2="56.3%" y2="0%"><stop offset="14.444444444444446%" stop-color="#00459c" stop-opacity="1"></stop><stop offset="85.55555555555554%" stop-color="#00387c" stop-opacity="1"></stop></linearGradient></defs><defs><linearGradient id="grad2_5" x1="0%" y1="100%" x2="56.3%" y2="0%"><stop offset="14.444444444444446%" stop-color="#002b5c" stop-opacity="1"></stop><stop offset="85.55555555555554%" stop-color="#00387c" stop-opacity="1"></stop></linearGradient></defs><defs><linearGradient id="grad2_6" x1="0%" y1="100%" x2="56.3%" y2="0%"><stop offset="14.444444444444446%" stop-color="#002b5c" stop-opacity="1"></stop><stop offset="85.55555555555554%" stop-color="#001f3e" stop-opacity="1"></stop></linearGradient></defs><defs><linearGradient id="grad2_7" x1="0%" y1="100%" x2="56.3%" y2="0%"><stop offset="14.444444444444446%" stop-color="#001122" stop-opacity="1"></stop><stop offset="85.55555555555554%" stop-color="#001f3e" stop-opacity="1"></stop></linearGradient></defs><g transform="translate(960, 540)"><path d="M-459 0C-453.2 -29.2 -447.3 -58.5 -441.4 -87.8C-435.4 -117.1 -429.2 -146.5 -416.7 -172.6C-404.1 -198.7 -385.2 -221.5 -370 -247.2C-354.8 -273 -343.4 -301.8 -324.6 -324.6C-305.7 -347.3 -279.4 -364.1 -252.8 -378.3C-226.2 -392.5 -199.4 -404.1 -172.2 -415.7C-145 -427.4 -117.5 -439 -88.8 -446.3C-60 -453.5 -30 -456.2 0 -459L0 0Z" fill="#001830"></path><path d="M-401.6 0C-396.5 -25.6 -391.4 -51.2 -386.2 -76.8C-380.9 -102.5 -375.6 -128.2 -364.6 -151C-353.6 -173.8 -337 -193.8 -323.8 -216.3C-310.5 -238.9 -300.5 -264.1 -284 -284C-267.5 -303.9 -244.4 -318.6 -221.2 -331C-197.9 -343.4 -174.5 -353.6 -150.7 -363.8C-126.9 -374 -102.8 -384.2 -77.7 -390.5C-52.5 -396.8 -26.3 -399.2 0 -401.6L0 0Z" fill="#00254d"></path><path d="M-344.2 0C-339.9 -21.9 -335.5 -43.9 -331 -65.8C-326.5 -87.8 -321.9 -109.9 -312.5 -129.4C-303.1 -149 -288.9 -166.1 -277.5 -185.4C-266.1 -204.8 -257.6 -226.3 -243.4 -243.4C-229.3 -260.5 -209.5 -273.1 -189.6 -283.7C-169.7 -294.4 -149.5 -303.1 -129.2 -311.8C-108.8 -320.5 -88.1 -329.3 -66.6 -334.7C-45 -340.1 -22.5 -342.2 0 -344.2L0 0Z" fill="#00326c"></path><path d="M-286.9 0C-283.2 -18.3 -279.6 -36.5 -275.8 -54.9C-272.1 -73.2 -268.3 -91.6 -260.4 -107.9C-252.6 -124.2 -240.7 -138.4 -231.3 -154.5C-221.8 -170.6 -214.6 -188.6 -202.9 -202.9C-191.1 -217.1 -174.6 -227.6 -158 -236.4C-141.4 -245.3 -124.6 -252.6 -107.6 -259.8C-90.6 -267.1 -73.5 -274.4 -55.5 -278.9C-37.5 -283.4 -18.8 -285.1 0 -286.9L0 0Z" fill="#003e8c"></path><path d="M-229.5 0C-226.6 -14.6 -223.7 -29.2 -220.7 -43.9C-217.7 -58.6 -214.6 -73.3 -208.3 -86.3C-202.1 -99.3 -192.6 -110.7 -185 -123.6C-177.4 -136.5 -171.7 -150.9 -162.3 -162.3C-152.8 -173.7 -139.7 -182.1 -126.4 -189.2C-113.1 -196.3 -99.7 -202.1 -86.1 -207.9C-72.5 -213.7 -58.8 -219.5 -44.4 -223.1C-30 -226.7 -15 -228.1 0 -229.5L0 0Z" fill="#004bad"></path><path d="M-172.1 0C-169.9 -11 -167.8 -21.9 -165.5 -32.9C-163.3 -43.9 -161 -54.9 -156.3 -64.7C-151.5 -74.5 -144.4 -83 -138.8 -92.7C-133.1 -102.4 -128.8 -113.2 -121.7 -121.7C-114.6 -130.3 -104.8 -136.5 -94.8 -141.9C-84.8 -147.2 -74.8 -151.5 -64.6 -155.9C-54.4 -160.3 -44.1 -164.6 -33.3 -167.3C-22.5 -170.1 -11.3 -171.1 0 -172.1L0 0Z" fill="#0056ce"></path><path d="M-114.7 0C-113.3 -7.3 -111.8 -14.6 -110.3 -21.9C-108.8 -29.3 -107.3 -36.6 -104.2 -43.1C-101 -49.7 -96.3 -55.4 -92.5 -61.8C-88.7 -68.3 -85.9 -75.4 -81.1 -81.1C-76.4 -86.8 -69.8 -91 -63.2 -94.6C-56.6 -98.1 -49.8 -101 -43.1 -103.9C-36.3 -106.8 -29.4 -109.8 -22.2 -111.6C-15 -113.4 -7.5 -114.1 0 -114.7L0 0Z" fill="#0061ef"></path><path d="M-57.4 0C-56.6 -3.7 -55.9 -7.3 -55.2 -11C-54.4 -14.6 -53.7 -18.3 -52.1 -21.6C-50.5 -24.8 -48.1 -27.7 -46.3 -30.9C-44.4 -34.1 -42.9 -37.7 -40.6 -40.6C-38.2 -43.4 -34.9 -45.5 -31.6 -47.3C-28.3 -49.1 -24.9 -50.5 -21.5 -52C-18.1 -53.4 -14.7 -54.9 -11.1 -55.8C-7.5 -56.7 -3.8 -57 0 -57.4L0 0Z" fill="#0066ff"></path></g><g transform="translate(0, 0)"><path d="M459 0C451.3 29.3 443.5 58.6 434.5 86.4C425.4 114.3 415 140.7 404.7 167.6C394.3 194.6 383.9 222.1 368.3 246.1C352.8 270.2 332.1 290.8 311.8 311.8C291.6 332.9 271.7 354.4 248.9 372.5C226.1 390.6 200.2 405.2 173.4 418.5C146.5 431.8 118.6 443.7 89.5 450.2C60.5 456.7 30.2 457.8 0 459L0 0Z" fill="#001830"></path><path d="M401.6 0C394.9 25.6 388.1 51.3 380.2 75.6C372.3 100 363.2 123.1 354.1 146.7C345 170.2 335.9 194.3 322.3 215.4C308.7 236.4 290.6 254.4 272.9 272.9C255.1 291.3 237.8 310.1 217.8 325.9C197.8 341.8 175.2 354.6 151.7 366.2C128.2 377.8 103.8 388.2 78.4 393.9C52.9 399.6 26.5 400.6 0 401.6L0 0Z" fill="#00254d"></path><path d="M344.3 0C338.5 22 332.7 43.9 325.9 64.8C319.1 85.7 311.3 105.5 303.5 125.7C295.7 145.9 287.9 166.5 276.3 184.6C264.6 202.6 249.1 218.1 233.9 233.9C218.7 249.7 203.8 265.8 186.7 279.4C169.5 292.9 150.2 303.9 130 313.9C109.9 323.8 89 332.7 67.2 337.6C45.4 342.5 22.7 343.4 0 344.3L0 0Z" fill="#00326c"></path><path d="M286.9 0C282 18.3 277.2 36.6 271.6 54C265.9 71.4 259.4 87.9 252.9 104.8C246.4 121.6 239.9 138.8 230.2 153.8C220.5 168.9 207.6 181.7 194.9 194.9C182.2 208.1 169.8 221.5 155.6 232.8C141.3 244.1 125.1 253.3 108.3 261.6C91.6 269.9 74.1 277.3 56 281.4C37.8 285.4 18.9 286.2 0 286.9L0 0Z" fill="#003e8c"></path><path d="M229.5 0C225.6 14.6 221.8 29.3 217.2 43.2C212.7 57.1 207.5 70.3 202.3 83.8C197.1 97.3 191.9 111 184.2 123.1C176.4 135.1 166.1 145.4 155.9 155.9C145.8 166.4 135.9 177.2 124.4 186.2C113 195.3 100.1 202.6 86.7 209.3C73.2 215.9 59.3 221.8 44.8 225.1C30.2 228.3 15.1 228.9 0 229.5L0 0Z" fill="#004bad"></path><path d="M172.1 0C169.2 11 166.3 22 162.9 32.4C159.5 42.9 155.6 52.7 151.7 62.9C147.9 73 144 83.3 138.1 92.3C132.3 101.3 124.5 109 116.9 116.9C109.3 124.8 101.9 132.9 93.3 139.7C84.8 146.5 75.1 152 65 156.9C54.9 161.9 44.5 166.4 33.6 168.8C22.7 171.3 11.3 171.7 0 172.1L0 0Z" fill="#0056ce"></path><path d="M114.8 0C112.8 7.3 110.9 14.6 108.6 21.6C106.4 28.6 103.8 35.2 101.2 41.9C98.6 48.6 96 55.5 92.1 61.5C88.2 67.5 83 72.7 78 78C72.9 83.2 67.9 88.6 62.2 93.1C56.5 97.6 50.1 101.3 43.3 104.6C36.6 107.9 29.7 110.9 22.4 112.5C15.1 114.2 7.6 114.5 0 114.8L0 0Z" fill="#0061ef"></path><path d="M57.4 0C56.4 3.7 55.4 7.3 54.3 10.8C53.2 14.3 51.9 17.6 50.6 21C49.3 24.3 48 27.8 46 30.8C44.1 33.8 41.5 36.3 39 39C36.4 41.6 34 44.3 31.1 46.6C28.3 48.8 25 50.7 21.7 52.3C18.3 54 14.8 55.5 11.2 56.3C7.6 57.1 3.8 57.2 0 57.4L0 0Z" fill="#0066ff"></path></g></svg>