<svg id="visual" viewBox="0 0 960 540" width="960" height="540" xmlns="http://www.w3.org/2000/svg" xmlns:xlink="http://www.w3.org/1999/xlink" version="1.1"><rect x="0" y="0" width="960" height="540" fill="#001220"></rect><defs><linearGradient id="grad1_0" x1="43.8%" y1="100%" x2="100%" y2="0%"><stop offset="14.444444444444446%" stop-color="#0066ff" stop-opacity="1"></stop><stop offset="85.55555555555554%" stop-color="#0066ff" stop-opacity="1"></stop></linearGradient></defs><defs><linearGradient id="grad1_1" x1="43.8%" y1="100%" x2="100%" y2="0%"><stop offset="14.444444444444446%" stop-color="#0066ff" stop-opacity="1"></stop><stop offset="85.55555555555554%" stop-color="#0059d1" stop-opacity="1"></stop></linearGradient></defs><defs><linearGradient id="grad1_2" x1="43.8%" y1="100%" x2="100%" y2="0%"><stop offset="14.444444444444446%" stop-color="#0049a3" stop-opacity="1"></stop><stop offset="85.55555555555554%" stop-color="#0059d1" stop-opacity="1"></stop></linearGradient></defs><defs><linearGradient id="grad1_3" x1="43.8%" y1="100%" x2="100%" y2="0%"><stop offset="14.444444444444446%" stop-color="#0049a3" stop-opacity="1"></stop><stop offset="85.55555555555554%" stop-color="#003775" stop-opacity="1"></stop></linearGradient></defs><defs><linearGradient id="grad1_4" x1="43.8%" y1="100%" x2="100%" y2="0%"><stop offset="14.444444444444446%" stop-color="#002548" stop-opacity="1"></stop><stop offset="85.55555555555554%" stop-color="#003775" stop-opacity="1"></stop></linearGradient></defs><defs><linearGradient id="grad1_5" x1="43.8%" y1="100%" x2="100%" y2="0%"><stop offset="14.444444444444446%" stop-color="#002548" stop-opacity="1"></stop><stop offset="85.55555555555554%" stop-color="#001220" stop-opacity="1"></stop></linearGradient></defs><defs><linearGradient id="grad2_0" x1="0%" y1="100%" x2="56.3%" y2="0%"><stop offset="14.444444444444446%" stop-color="#0066ff" stop-opacity="1"></stop><stop offset="85.55555555555554%" stop-color="#0066ff" stop-opacity="1"></stop></linearGradient></defs><defs><linearGradient id="grad2_1" x1="0%" y1="100%" x2="56.3%" y2="0%"><stop offset="14.444444444444446%" stop-color="#0059d1" stop-opacity="1"></stop><stop offset="85.55555555555554%" stop-color="#0066ff" stop-opacity="1"></stop></linearGradient></defs><defs><linearGradient id="grad2_2" x1="0%" y1="100%" x2="56.3%" y2="0%"><stop offset="14.444444444444446%" stop-color="#0059d1" stop-opacity="1"></stop><stop offset="85.55555555555554%" stop-color="#0049a3" stop-opacity="1"></stop></linearGradient></defs><defs><linearGradient id="grad2_3" x1="0%" y1="100%" x2="56.3%" y2="0%"><stop offset="14.444444444444446%" stop-color="#003775" stop-opacity="1"></stop><stop offset="85.55555555555554%" stop-color="#0049a3" stop-opacity="1"></stop></linearGradient></defs><defs><linearGradient id="grad2_4" x1="0%" y1="100%" x2="56.3%" y2="0%"><stop offset="14.444444444444446%" stop-color="#003775" stop-opacity="1"></stop><stop offset="85.55555555555554%" stop-color="#002548" stop-opacity="1"></stop></linearGradient></defs><defs><linearGradient id="grad2_5" x1="0%" y1="100%" x2="56.3%" y2="0%"><stop offset="14.444444444444446%" stop-color="#001220" stop-opacity="1"></stop><stop offset="85.55555555555554%" stop-color="#002548" stop-opacity="1"></stop></linearGradient></defs><g transform="translate(960, 540)"><path d="M-459 0C-423.5 -66.3 -388 -132.5 -354.2 -204.5C-320.4 -276.5 -288.3 -354.1 -229.5 -397.5C-170.7 -440.9 -85.4 -449.9 0 -459L0 0Z" fill="#001c33"></path><path d="M-382.5 0C-352.9 -55.2 -323.3 -110.4 -295.2 -170.4C-267 -230.4 -240.2 -295.1 -191.3 -331.3C-142.3 -367.4 -71.1 -374.9 0 -382.5L0 0Z" fill="#002e5e"></path><path d="M-306 0C-282.3 -44.2 -258.7 -88.4 -236.1 -136.3C-213.6 -184.3 -192.2 -236.1 -153 -265C-113.8 -293.9 -56.9 -300 0 -306L0 0Z" fill="#00408b"></path><path d="M-229.5 0C-211.8 -33.1 -194 -66.3 -177.1 -102.3C-160.2 -138.2 -144.1 -177.1 -114.8 -198.8C-85.4 -220.4 -42.7 -225 0 -229.5L0 0Z" fill="#0051ba"></path><path d="M-153 0C-141.2 -22.1 -129.3 -44.2 -118.1 -68.2C-106.8 -92.2 -96.1 -118 -76.5 -132.5C-56.9 -147 -28.5 -150 0 -153L0 0Z" fill="#0060e8"></path><path d="M-76.5 0C-70.6 -11 -64.7 -22.1 -59 -34.1C-53.4 -46.1 -48 -59 -38.3 -66.3C-28.5 -73.5 -14.2 -75 0 -76.5L0 0Z" fill="#0066ff"></path></g><g transform="translate(0, 0)"><path d="M459 0C442.4 77.2 425.9 154.4 389.7 225C353.5 295.6 297.7 359.6 229.5 397.5C161.3 435.4 80.6 447.2 0 459L0 0Z" fill="#001c33"></path><path d="M382.5 0C368.7 64.3 354.9 128.7 324.8 187.5C294.6 246.3 248.1 299.7 191.3 331.3C134.4 362.8 67.2 372.7 0 382.5L0 0Z" fill="#002e5e"></path><path d="M306 0C295 51.5 283.9 102.9 259.8 150C235.7 197.1 198.5 239.7 153 265C107.5 290.3 53.8 298.1 0 306L0 0Z" fill="#00408b"></path><path d="M229.5 0C221.2 38.6 212.9 77.2 194.9 112.5C176.8 147.8 148.9 179.8 114.8 198.8C80.6 217.7 40.3 223.6 0 229.5L0 0Z" fill="#0051ba"></path><path d="M153 0C147.5 25.7 142 51.5 129.9 75C117.8 98.5 99.2 119.9 76.5 132.5C53.8 145.1 26.9 149.1 0 153L0 0Z" fill="#0060e8"></path><path d="M76.5 0C73.7 12.9 71 25.7 65 37.5C58.9 49.3 49.6 59.9 38.3 66.3C26.9 72.6 13.4 74.5 0 76.5L0 0Z" fill="#0066ff"></path></g></svg>