<svg id="visual" viewBox="0 0 960 540" width="960" height="540" xmlns="http://www.w3.org/2000/svg" xmlns:xlink="http://www.w3.org/1999/xlink" version="1.1"><rect x="0" y="0" width="960" height="540" fill="#001220"></rect><defs><linearGradient id="grad1_0" x1="43.8%" y1="100%" x2="100%" y2="0%"><stop offset="14.444444444444446%" stop-color="#42d813" stop-opacity="1"></stop><stop offset="85.55555555555554%" stop-color="#42d813" stop-opacity="1"></stop></linearGradient></defs><defs><linearGradient id="grad1_1" x1="43.8%" y1="100%" x2="100%" y2="0%"><stop offset="14.444444444444446%" stop-color="#42d813" stop-opacity="1"></stop><stop offset="85.55555555555554%" stop-color="#00b360" stop-opacity="1"></stop></linearGradient></defs><defs><linearGradient id="grad1_2" x1="43.8%" y1="100%" x2="100%" y2="0%"><stop offset="14.444444444444446%" stop-color="#00897a" stop-opacity="1"></stop><stop offset="85.55555555555554%" stop-color="#00b360" stop-opacity="1"></stop></linearGradient></defs><defs><linearGradient id="grad1_3" x1="43.8%" y1="100%" x2="100%" y2="0%"><stop offset="14.444444444444446%" stop-color="#00897a" stop-opacity="1"></stop><stop offset="85.55555555555554%" stop-color="#005f74" stop-opacity="1"></stop></linearGradient></defs><defs><linearGradient id="grad1_4" x1="43.8%" y1="100%" x2="100%" y2="0%"><stop offset="14.444444444444446%" stop-color="#003652" stop-opacity="1"></stop><stop offset="85.55555555555554%" stop-color="#005f74" stop-opacity="1"></stop></linearGradient></defs><defs><linearGradient id="grad1_5" x1="43.8%" y1="100%" x2="100%" y2="0%"><stop offset="14.444444444444446%" stop-color="#003652" stop-opacity="1"></stop><stop offset="85.55555555555554%" stop-color="#001220" stop-opacity="1"></stop></linearGradient></defs><defs><linearGradient id="grad2_0" x1="0%" y1="100%" x2="56.3%" y2="0%"><stop offset="14.444444444444446%" stop-color="#42d813" stop-opacity="1"></stop><stop offset="85.55555555555554%" stop-color="#42d813" stop-opacity="1"></stop></linearGradient></defs><defs><linearGradient id="grad2_1" x1="0%" y1="100%" x2="56.3%" y2="0%"><stop offset="14.444444444444446%" stop-color="#00b360" stop-opacity="1"></stop><stop offset="85.55555555555554%" stop-color="#42d813" stop-opacity="1"></stop></linearGradient></defs><defs><linearGradient id="grad2_2" x1="0%" y1="100%" x2="56.3%" y2="0%"><stop offset="14.444444444444446%" stop-color="#00b360" stop-opacity="1"></stop><stop offset="85.55555555555554%" stop-color="#00897a" stop-opacity="1"></stop></linearGradient></defs><defs><linearGradient id="grad2_3" x1="0%" y1="100%" x2="56.3%" y2="0%"><stop offset="14.444444444444446%" stop-color="#005f74" stop-opacity="1"></stop><stop offset="85.55555555555554%" stop-color="#00897a" stop-opacity="1"></stop></linearGradient></defs><defs><linearGradient id="grad2_4" x1="0%" y1="100%" x2="56.3%" y2="0%"><stop offset="14.444444444444446%" stop-color="#005f74" stop-opacity="1"></stop><stop offset="85.55555555555554%" stop-color="#003652" stop-opacity="1"></stop></linearGradient></defs><defs><linearGradient id="grad2_5" x1="0%" y1="100%" x2="56.3%" y2="0%"><stop offset="14.444444444444446%" stop-color="#001220" stop-opacity="1"></stop><stop offset="85.55555555555554%" stop-color="#003652" stop-opacity="1"></stop></linearGradient></defs><g transform="translate(960, 540)"><path d="M-459 0C-446.8 -79.9 -434.6 -159.9 -397.5 -229.5C-360.4 -299.1 -298.4 -358.4 -228 -394.9C-157.6 -431.4 -78.8 -445.2 0 -459L0 0Z" fill="#00243a"></path><path d="M-382.5 0C-372.3 -66.6 -362.2 -133.2 -331.3 -191.3C-300.3 -249.3 -248.7 -298.7 -190 -329.1C-131.3 -359.5 -65.7 -371 0 -382.5L0 0Z" fill="#004a66"></path><path d="M-306 0C-297.9 -53.3 -289.7 -106.6 -265 -153C-240.3 -199.4 -198.9 -238.9 -152 -263.3C-105.1 -287.6 -52.5 -296.8 0 -306L0 0Z" fill="#00747b"></path><path d="M-229.5 0C-223.4 -40 -217.3 -79.9 -198.8 -114.8C-180.2 -149.6 -149.2 -179.2 -114 -197.5C-78.8 -215.7 -39.4 -222.6 0 -229.5L0 0Z" fill="#009e71"></path><path d="M-153 0C-148.9 -26.6 -144.9 -53.3 -132.5 -76.5C-120.1 -99.7 -99.5 -119.5 -76 -131.6C-52.5 -143.8 -26.3 -148.4 0 -153L0 0Z" fill="#00c645"></path><path d="M-76.5 0C-74.5 -13.3 -72.4 -26.6 -66.3 -38.3C-60.1 -49.9 -49.7 -59.7 -38 -65.8C-26.3 -71.9 -13.1 -74.2 0 -76.5L0 0Z" fill="#42d813"></path></g><g transform="translate(0, 0)"><path d="M459 0C451.1 87.5 443.3 174.9 397.5 229.5C351.7 284.1 268.1 305.8 195.5 338.6C122.9 371.4 61.5 415.2 0 459L0 0Z" fill="#00243a"></path><path d="M382.5 0C375.9 72.9 369.4 145.8 331.3 191.2C293.1 236.7 223.4 254.9 162.9 282.2C102.4 309.5 51.2 346 0 382.5L0 0Z" fill="#004a66"></path><path d="M306 0C300.8 58.3 295.5 116.6 265 153C234.5 189.4 178.7 203.9 130.3 225.7C82 247.6 41 276.8 0 306L0 0Z" fill="#00747b"></path><path d="M229.5 0C225.6 43.7 221.6 87.5 198.8 114.7C175.9 142 134 152.9 97.8 169.3C61.5 185.7 30.7 207.6 0 229.5L0 0Z" fill="#009e71"></path><path d="M153 0C150.4 29.2 147.8 58.3 132.5 76.5C117.2 94.7 89.4 101.9 65.2 112.9C41 123.8 20.5 138.4 0 153L0 0Z" fill="#00c645"></path><path d="M76.5 0C75.2 14.6 73.9 29.2 66.3 38.2C58.6 47.3 44.7 51 32.6 56.4C20.5 61.9 10.2 69.2 0 76.5L0 0Z" fill="#42d813"></path></g></svg>