<svg id="visual" viewBox="0 0 960 540" width="960" height="540" xmlns="http://www.w3.org/2000/svg" xmlns:xlink="http://www.w3.org/1999/xlink" version="1.1"><rect x="0" y="0" width="960" height="540" fill="#001220"></rect><defs><linearGradient id="grad1_0" x1="43.8%" y1="0%" x2="100%" y2="100%"><stop offset="14.444444444444446%" stop-color="#fbae3c" stop-opacity="1"></stop><stop offset="85.55555555555554%" stop-color="#fbae3c" stop-opacity="1"></stop></linearGradient></defs><defs><linearGradient id="grad1_1" x1="43.8%" y1="0%" x2="100%" y2="100%"><stop offset="14.444444444444446%" stop-color="#fbae3c" stop-opacity="1"></stop><stop offset="85.55555555555554%" stop-color="#eb7458" stop-opacity="1"></stop></linearGradient></defs><defs><linearGradient id="grad1_2" x1="43.8%" y1="0%" x2="100%" y2="100%"><stop offset="14.444444444444446%" stop-color="#b84e6c" stop-opacity="1"></stop><stop offset="85.55555555555554%" stop-color="#eb7458" stop-opacity="1"></stop></linearGradient></defs><defs><linearGradient id="grad1_3" x1="43.8%" y1="0%" x2="100%" y2="100%"><stop offset="14.444444444444446%" stop-color="#b84e6c" stop-opacity="1"></stop><stop offset="85.55555555555554%" stop-color="#713c69" stop-opacity="1"></stop></linearGradient></defs><defs><linearGradient id="grad1_4" x1="43.8%" y1="0%" x2="100%" y2="100%"><stop offset="14.444444444444446%" stop-color="#2d2b4c" stop-opacity="1"></stop><stop offset="85.55555555555554%" stop-color="#713c69" stop-opacity="1"></stop></linearGradient></defs><defs><linearGradient id="grad1_5" x1="43.8%" y1="0%" x2="100%" y2="100%"><stop offset="14.444444444444446%" stop-color="#2d2b4c" stop-opacity="1"></stop><stop offset="85.55555555555554%" stop-color="#001220" stop-opacity="1"></stop></linearGradient></defs><defs><linearGradient id="grad2_0" x1="0%" y1="0%" x2="56.3%" y2="100%"><stop offset="14.444444444444446%" stop-color="#fbae3c" stop-opacity="1"></stop><stop offset="85.55555555555554%" stop-color="#fbae3c" stop-opacity="1"></stop></linearGradient></defs><defs><linearGradient id="grad2_1" x1="0%" y1="0%" x2="56.3%" y2="100%"><stop offset="14.444444444444446%" stop-color="#eb7458" stop-opacity="1"></stop><stop offset="85.55555555555554%" stop-color="#fbae3c" stop-opacity="1"></stop></linearGradient></defs><defs><linearGradient id="grad2_2" x1="0%" y1="0%" x2="56.3%" y2="100%"><stop offset="14.444444444444446%" stop-color="#eb7458" stop-opacity="1"></stop><stop offset="85.55555555555554%" stop-color="#b84e6c" stop-opacity="1"></stop></linearGradient></defs><defs><linearGradient id="grad2_3" x1="0%" y1="0%" x2="56.3%" y2="100%"><stop offset="14.444444444444446%" stop-color="#713c69" stop-opacity="1"></stop><stop offset="85.55555555555554%" stop-color="#b84e6c" stop-opacity="1"></stop></linearGradient></defs><defs><linearGradient id="grad2_4" x1="0%" y1="0%" x2="56.3%" y2="100%"><stop offset="14.444444444444446%" stop-color="#713c69" stop-opacity="1"></stop><stop offset="85.55555555555554%" stop-color="#2d2b4c" stop-opacity="1"></stop></linearGradient></defs><defs><linearGradient id="grad2_5" x1="0%" y1="0%" x2="56.3%" y2="100%"><stop offset="14.444444444444446%" stop-color="#001220" stop-opacity="1"></stop><stop offset="85.55555555555554%" stop-color="#2d2b4c" stop-opacity="1"></stop></linearGradient></defs><g transform="translate(960, 0)"><path d="M0 459C-43.8 414.6 -87.6 370.2 -147 354.8C-206.3 339.4 -281.1 353 -324.6 324.6C-368 296.1 -380.1 225.7 -397.3 164.6C-414.4 103.5 -436.7 51.7 -459 0L0 0Z" fill="#131f37"></path><path d="M0 382.5C-36.5 345.5 -73 308.5 -122.5 295.6C-171.9 282.8 -234.3 294.2 -270.5 270.5C-306.7 246.8 -316.7 188 -331.1 137.1C-345.4 86.2 -363.9 43.1 -382.5 0L0 0Z" fill="#4d345e"></path><path d="M0 306C-29.2 276.4 -58.4 246.8 -98 236.5C-137.5 226.2 -187.4 235.3 -216.4 216.4C-245.3 197.4 -253.4 150.4 -264.8 109.7C-276.3 69 -291.1 34.5 -306 0L0 0Z" fill="#96446e"></path><path d="M0 229.5C-21.9 207.3 -43.8 185.1 -73.5 177.4C-103.1 169.7 -140.6 176.5 -162.3 162.3C-184 148.1 -190 112.8 -198.6 82.3C-207.2 51.7 -218.4 25.9 -229.5 0L0 0Z" fill="#d55e64"></path><path d="M0 153C-14.6 138.2 -29.2 123.4 -49 118.3C-68.8 113.1 -93.7 117.7 -108.2 108.2C-122.7 98.7 -126.7 75.2 -132.4 54.9C-138.1 34.5 -145.6 17.2 -153 0L0 0Z" fill="#f88f4a"></path><path d="M0 76.5C-7.3 69.1 -14.6 61.7 -24.5 59.1C-34.4 56.6 -46.9 58.8 -54.1 54.1C-61.3 49.4 -63.3 37.6 -66.2 27.4C-69.1 17.2 -72.8 8.6 -76.5 0L0 0Z" fill="#fbae3c"></path></g><g transform="translate(0, 540)"><path d="M0 -459C45.8 -406.4 91.6 -353.9 134.3 -324.3C177.1 -294.7 216.8 -288.1 270.1 -270.1C323.4 -252.1 390.3 -222.6 424.1 -175.7C457.8 -128.7 458.4 -64.4 459 0L0 0Z" fill="#131f37"></path><path d="M0 -382.5C38.2 -338.7 76.3 -294.9 111.9 -270.2C147.6 -245.6 180.7 -240.1 225.1 -225.1C269.5 -210.1 325.3 -185.5 353.4 -146.4C381.5 -107.3 382 -53.6 382.5 0L0 0Z" fill="#4d345e"></path><path d="M0 -306C30.5 -271 61 -235.9 89.5 -216.2C118.1 -196.5 144.5 -192.1 180.1 -180.1C215.6 -168.1 260.2 -148.4 282.7 -117.1C305.2 -85.8 305.6 -42.9 306 0L0 0Z" fill="#96446e"></path><path d="M0 -229.5C22.9 -203.2 45.8 -176.9 67.2 -162.1C88.5 -147.4 108.4 -144.1 135.1 -135.1C161.7 -126 195.2 -111.3 212 -87.8C228.9 -64.4 229.2 -32.2 229.5 0L0 0Z" fill="#d55e64"></path><path d="M0 -153C15.3 -135.5 30.5 -118 44.8 -108.1C59 -98.2 72.3 -96 90 -90C107.8 -84 130.1 -74.2 141.4 -58.6C152.6 -42.9 152.8 -21.5 153 0L0 0Z" fill="#f88f4a"></path><path d="M0 -76.5C7.6 -67.7 15.3 -59 22.4 -54C29.5 -49.1 36.1 -48 45 -45C53.9 -42 65.1 -37.1 70.7 -29.3C76.3 -21.5 76.4 -10.7 76.5 0L0 0Z" fill="#fbae3c"></path></g></svg>