<svg id="visual" viewBox="0 0 960 540" width="960" height="540" xmlns="http://www.w3.org/2000/svg" xmlns:xlink="http://www.w3.org/1999/xlink" version="1.1"><rect x="0" y="0" width="960" height="540" fill="#001220"></rect><defs><linearGradient id="grad1_0" x1="43.8%" y1="0%" x2="100%" y2="100%"><stop offset="14.444444444444446%" stop-color="#fcaf3c" stop-opacity="1"></stop><stop offset="85.55555555555554%" stop-color="#fcaf3c" stop-opacity="1"></stop></linearGradient></defs><defs><linearGradient id="grad1_1" x1="43.8%" y1="0%" x2="100%" y2="100%"><stop offset="14.444444444444446%" stop-color="#fcaf3c" stop-opacity="1"></stop><stop offset="85.55555555555554%" stop-color="#ec7458" stop-opacity="1"></stop></linearGradient></defs><defs><linearGradient id="grad1_2" x1="43.8%" y1="0%" x2="100%" y2="100%"><stop offset="14.444444444444446%" stop-color="#b94f6c" stop-opacity="1"></stop><stop offset="85.55555555555554%" stop-color="#ec7458" stop-opacity="1"></stop></linearGradient></defs><defs><linearGradient id="grad1_3" x1="43.8%" y1="0%" x2="100%" y2="100%"><stop offset="14.444444444444446%" stop-color="#b94f6c" stop-opacity="1"></stop><stop offset="85.55555555555554%" stop-color="#723c6a" stop-opacity="1"></stop></linearGradient></defs><defs><linearGradient id="grad1_4" x1="43.8%" y1="0%" x2="100%" y2="100%"><stop offset="14.444444444444446%" stop-color="#2d2b4d" stop-opacity="1"></stop><stop offset="85.55555555555554%" stop-color="#723c6a" stop-opacity="1"></stop></linearGradient></defs><defs><linearGradient id="grad1_5" x1="43.8%" y1="0%" x2="100%" y2="100%"><stop offset="14.444444444444446%" stop-color="#2d2b4d" stop-opacity="1"></stop><stop offset="85.55555555555554%" stop-color="#001220" stop-opacity="1"></stop></linearGradient></defs><defs><linearGradient id="grad2_0" x1="0%" y1="0%" x2="56.3%" y2="100%"><stop offset="14.444444444444446%" stop-color="#fcaf3c" stop-opacity="1"></stop><stop offset="85.55555555555554%" stop-color="#fcaf3c" stop-opacity="1"></stop></linearGradient></defs><defs><linearGradient id="grad2_1" x1="0%" y1="0%" x2="56.3%" y2="100%"><stop offset="14.444444444444446%" stop-color="#ec7458" stop-opacity="1"></stop><stop offset="85.55555555555554%" stop-color="#fcaf3c" stop-opacity="1"></stop></linearGradient></defs><defs><linearGradient id="grad2_2" x1="0%" y1="0%" x2="56.3%" y2="100%"><stop offset="14.444444444444446%" stop-color="#ec7458" stop-opacity="1"></stop><stop offset="85.55555555555554%" stop-color="#b94f6c" stop-opacity="1"></stop></linearGradient></defs><defs><linearGradient id="grad2_3" x1="0%" y1="0%" x2="56.3%" y2="100%"><stop offset="14.444444444444446%" stop-color="#723c6a" stop-opacity="1"></stop><stop offset="85.55555555555554%" stop-color="#b94f6c" stop-opacity="1"></stop></linearGradient></defs><defs><linearGradient id="grad2_4" x1="0%" y1="0%" x2="56.3%" y2="100%"><stop offset="14.444444444444446%" stop-color="#723c6a" stop-opacity="1"></stop><stop offset="85.55555555555554%" stop-color="#2d2b4d" stop-opacity="1"></stop></linearGradient></defs><defs><linearGradient id="grad2_5" x1="0%" y1="0%" x2="56.3%" y2="100%"><stop offset="14.444444444444446%" stop-color="#001220" stop-opacity="1"></stop><stop offset="85.55555555555554%" stop-color="#2d2b4d" stop-opacity="1"></stop></linearGradient></defs><g transform="translate(960, 0)"><path d="M0 459C-79.9 446.8 -159.9 434.6 -229.5 397.5C-299.1 360.4 -358.4 298.4 -394.9 228C-431.4 157.6 -445.2 78.8 -459 0L0 0Z" fill="#132037"></path><path d="M0 382.5C-66.6 372.3 -133.2 362.2 -191.2 331.3C-249.3 300.3 -298.7 248.7 -329.1 190C-359.5 131.3 -371 65.7 -382.5 0L0 0Z" fill="#4e355e"></path><path d="M0 306C-53.3 297.9 -106.6 289.7 -153 265C-199.4 240.3 -238.9 198.9 -263.3 152C-287.6 105.1 -296.8 52.5 -306 0L0 0Z" fill="#97446e"></path><path d="M0 229.5C-40 223.4 -79.9 217.3 -114.7 198.8C-149.6 180.2 -179.2 149.2 -197.5 114C-215.7 78.8 -222.6 39.4 -229.5 0L0 0Z" fill="#d65e64"></path><path d="M0 153C-26.6 148.9 -53.3 144.9 -76.5 132.5C-99.7 120.1 -119.5 99.5 -131.6 76C-143.8 52.5 -148.4 26.3 -153 0L0 0Z" fill="#f9904a"></path><path d="M0 76.5C-13.3 74.5 -26.6 72.4 -38.2 66.3C-49.9 60.1 -59.7 49.7 -65.8 38C-71.9 26.3 -74.2 13.1 -76.5 0L0 0Z" fill="#fcaf3c"></path></g><g transform="translate(0, 540)"><path d="M0 -459C87.5 -451.1 174.9 -443.3 229.5 -397.5C284.1 -351.7 305.8 -268.1 338.6 -195.5C371.4 -122.9 415.2 -61.5 459 0L0 0Z" fill="#132037"></path><path d="M0 -382.5C72.9 -375.9 145.8 -369.4 191.2 -331.3C236.7 -293.1 254.9 -223.4 282.2 -162.9C309.5 -102.4 346 -51.2 382.5 0L0 0Z" fill="#4e355e"></path><path d="M0 -306C58.3 -300.8 116.6 -295.5 153 -265C189.4 -234.5 203.9 -178.7 225.7 -130.3C247.6 -82 276.8 -41 306 0L0 0Z" fill="#97446e"></path><path d="M0 -229.5C43.7 -225.6 87.5 -221.6 114.7 -198.8C142 -175.9 152.9 -134 169.3 -97.8C185.7 -61.5 207.6 -30.7 229.5 0L0 0Z" fill="#d65e64"></path><path d="M0 -153C29.2 -150.4 58.3 -147.8 76.5 -132.5C94.7 -117.2 101.9 -89.4 112.9 -65.2C123.8 -41 138.4 -20.5 153 0L0 0Z" fill="#f9904a"></path><path d="M0 -76.5C14.6 -75.2 29.2 -73.9 38.2 -66.3C47.3 -58.6 51 -44.7 56.4 -32.6C61.9 -20.5 69.2 -10.2 76.5 0L0 0Z" fill="#fcaf3c"></path></g></svg>